<svg id="Layer_1" data-name="Layer 1" xmlns="http://www.w3.org/2000/svg" viewBox="0 0 84.11 17.9"><defs><style>.cls-1{fill:#fff;}.cls-1,.cls-2,.cls-3{stroke:#231f20;stroke-miterlimit:10;stroke-width:0.25px;}.cls-2,.cls-4{fill:#231f20;}.cls-3{fill:#fed700;}</style></defs><ellipse class="cls-1" cx="10.36" cy="8.95" rx="10.23" ry="8.83"/><path class="cls-2" d="M8.42,7.47v2.66A2.57,2.57,0,0,1,6,7.47,2.57,2.57,0,0,1,8.42,4.81a2.57,2.57,0,0,1,2.44,2.66Z" transform="translate(-4.26 -0.05)"/><path class="cls-3" d="M8.92,10.53V7.88a2.56,2.56,0,0,1,2.43,2.65,2.57,2.57,0,0,1-2.43,2.66,2.57,2.57,0,0,1-2.44-2.66Z" transform="translate(-4.26 -0.05)"/><path class="cls-2" d="M20.48,7.47v2.66A2.57,2.57,0,0,1,18,7.47a2.57,2.57,0,0,1,2.44-2.66,2.57,2.57,0,0,1,2.43,2.66Z" transform="translate(-4.26 -0.05)"/><path class="cls-3" d="M21,10.56V7.9a2.57,2.57,0,0,1,2.44,2.66A2.56,2.56,0,0,1,21,13.21a2.56,2.56,0,0,1-2.44-2.65Z" transform="translate(-4.26 -0.05)"/><path class="cls-2" d="M14.61,7.53H12.18a2.56,2.56,0,0,1,2.43-2.65,2.57,2.57,0,0,1,2.44,2.65Z" transform="translate(-4.26 -0.05)"/><path class="cls-2" d="M14.61,10.46h2.44a2.57,2.57,0,0,1-2.44,2.66,2.57,2.57,0,0,1-2.43-2.66Z" transform="translate(-4.26 -0.05)"/><rect class="cls-2" x="7.92" y="7.49" width="1.58" height="2.92"/><rect class="cls-2" x="11.21" y="7.49" width="1.58" height="2.92"/><rect class="cls-4" x="11.29" y="10.34" width="1.42" height="0.17"/><rect class="cls-4" x="8" y="10.33" width="1.42" height="0.15"/><path class="cls-4" d="M29.27,13.5H26.05V4.4h3.22Z" transform="translate(-4.26 -0.05)"/><path class="cls-4" d="M36.69,13.5H33.78V7.59c0-.23-.17-.34-.5-.34s-.51.11-.51.33V13.5H29.86V6.14h2.91v.24a4.12,4.12,0,0,1,1.8-.3A3.78,3.78,0,0,1,36,6.35c.45.18.67.44.67.78Z" transform="translate(-4.26 -0.05)"/><path class="cls-4" d="M37.82,15.07V14h2.37c.69,0,1-.22,1-.67a4.43,4.43,0,0,1-1.8.28,3.6,3.6,0,0,1-1.49-.29c-.42-.19-.63-.43-.63-.74V7.29c0-.8.78-1.21,2.33-1.21a5.5,5.5,0,0,1,1.61.33l.38-.27h2.51V13.4a1.65,1.65,0,0,1-.45,1.19c-.31.32-1.25.48-2.83.48Zm3.4-2.88V7.56c0-.22-.16-.33-.5-.33s-.51.11-.51.33v4.62q0,.33.51.33C41.06,12.51,41.22,12.41,41.22,12.19Z" transform="translate(-4.26 -0.05)"/><path class="cls-4" d="M51.57,10.38h-3.9V12.1c0,.25.17.38.5.38s.49-.13.49-.38V10.62h2.91v1.49q0,1.5-3.42,1.5t-3.39-1.56V7.64q0-1.56,3.39-1.56t3.42,1.5Zm-2.91-1.1V7.59c0-.24-.16-.36-.49-.36s-.5.12-.5.36V9.28Z" transform="translate(-4.26 -0.05)"/><path class="cls-4" d="M59,13.5h-2.9V7.59c0-.23-.17-.34-.51-.34s-.51.11-.51.33V13.5h-2.9V6.14h2.9v.24a4.14,4.14,0,0,1,1.81-.3,3.82,3.82,0,0,1,1.45.27q.66.27.66.78Z" transform="translate(-4.26 -0.05)"/><path class="cls-4" d="M62.52,5.73h-2.9V4.4h2.9Zm0,7.77h-2.9V6.14h2.9Z" transform="translate(-4.26 -0.05)"/><path class="cls-4" d="M70,10.38h-3.9V12.1c0,.25.16.38.5.38s.49-.13.49-.38V10.62H70v1.49q0,1.5-3.42,1.5t-3.39-1.56V7.64q0-1.56,3.39-1.56T70,7.58ZM67,9.28V7.59c0-.24-.17-.36-.49-.36s-.5.12-.5.36V9.28Z" transform="translate(-4.26 -0.05)"/><path class="cls-4" d="M77.49,9.19H74.58V7.59c0-.23-.17-.34-.5-.34s-.5.11-.5.33V13.5H70.67V6.14h2.91v.24a4.12,4.12,0,0,1,1.8-.3,3.57,3.57,0,0,1,1.49.29c.41.19.62.45.62.76Z" transform="translate(-4.26 -0.05)"/><path class="cls-4" d="M80.9,13.5H78V6.14H80.9Zm.56-9.1L80.25,5.58H78.64l.63-1.18Z" transform="translate(-4.26 -0.05)"/><path class="cls-4" d="M88.37,13.5H85.8v-.28c-.22.26-.84.39-1.87.39-1.58,0-2.38-.39-2.38-1.16V11a1,1,0,0,1,.58-.86,11.2,11.2,0,0,1,2.32-.92c.68-.21,1-.38,1-.51V7.59c0-.24-.16-.36-.5-.36s-.57.29-.57.88c0,.1,0,.26,0,.47a3.38,3.38,0,0,1,0,.47h-2.8V7.58c0-1,1.15-1.5,3.47-1.5q3.24,0,3.24,1.56Zm-2.91-1.37v-1.9c-.66.1-1,.29-1,.56v1.34c0,.22.18.33.52.33S85.46,12.35,85.46,12.13Z" transform="translate(-4.26 -0.05)"/></svg>