<svg id="Layer_1" data-name="Layer 1" xmlns="http://www.w3.org/2000/svg" viewBox="0 0 49.33 47.75"><defs><style>.cls-1{fill:#fff;}.cls-1,.cls-2,.cls-3{stroke:#231f20;stroke-miterlimit:10;stroke-width:0.25px;}.cls-2,.cls-4{fill:#231f20;}.cls-3{fill:#fed700;}</style></defs><ellipse class="cls-1" cx="24.67" cy="23.88" rx="24.54" ry="23.75"/><path class="cls-2" d="M10.15,20.89V28c-3.2,0-5.83-3.23-5.83-7.15S7,13.74,10.15,13.74,16,17,16,20.89Z" transform="translate(-0.33 -1.12)"/><path class="cls-3" d="M11.33,29.13V22c3.2,0,5.83,3.23,5.83,7.15s-2.63,7.15-5.84,7.15-5.84-3.23-5.84-7.15Z" transform="translate(-0.33 -1.12)"/><path class="cls-2" d="M39.06,20.89V28c-3.2,0-5.83-3.23-5.83-7.15s2.63-7.15,5.84-7.15S44.9,17,44.9,20.89Z" transform="translate(-0.33 -1.12)"/><path class="cls-3" d="M40.19,29.19l0-7.15c3.2,0,5.83,3.23,5.83,7.15s-2.64,7.15-5.85,7.15-5.84-3.23-5.84-7.15Z" transform="translate(-0.33 -1.12)"/><path class="cls-2" d="M25,21.06H19.16c0-3.93,2.64-7.15,5.84-7.15s5.84,3.22,5.84,7.15Z" transform="translate(-0.33 -1.12)"/><path class="cls-2" d="M25,28.92h5.84c0,3.92-2.64,7.15-5.84,7.14s-5.84-3.22-5.84-7.15Z" transform="translate(-0.33 -1.12)"/><rect class="cls-2" x="18.82" y="19.95" width="3.79" height="7.85"/><rect class="cls-2" x="26.72" y="19.95" width="3.79" height="7.85"/><rect class="cls-4" x="26.91" y="27.6" width="3.42" height="0.46"/><rect class="cls-4" x="19.01" y="27.59" width="3.42" height="0.41"/></svg>